<svg xmlns="http://www.w3.org/2000/svg" xmlns:xlink="http://www.w3.org/1999/xlink" version="1.1" width="300" height="300" viewBox="0 0 300 300">
<g>
<path d="M0 0H300V300H0Z" fill="#ffffff"/>
<path stroke-width="4" stroke-linecap="butt" stroke-miterlimit="10" stroke-linejoin="miter" fill="none" stroke="#000000" d="M260 112.215 259.738 188.621"/>
<path stroke-width="4" stroke-linecap="butt" stroke-miterlimit="10" stroke-linejoin="miter" fill="none" stroke="#000000" d="M260 112.215 209.699 246.984"/>
<path stroke-width="4" stroke-linecap="butt" stroke-miterlimit="10" stroke-linejoin="miter" fill="none" stroke="#000000" d="M259.738 188.621 209.699 246.984"/>
<path stroke-width="4" stroke-linecap="butt" stroke-miterlimit="10" stroke-linejoin="miter" fill="none" stroke="#000000" d="M260 112.215 133.293 260"/>
<path stroke-width="4" stroke-linecap="butt" stroke-miterlimit="10" stroke-linejoin="miter" fill="none" stroke="#000000" d="M259.738 188.621 133.293 260"/>
<path stroke-width="4" stroke-linecap="butt" stroke-miterlimit="10" stroke-linejoin="miter" fill="none" stroke="#000000" d="M209.699 246.984 133.293 260"/>
<path stroke-width="4" stroke-linecap="butt" stroke-miterlimit="10" stroke-linejoin="miter" fill="none" stroke="#000000" d="M260 112.215 66.273 221.574"/>
<path stroke-width="4" stroke-linecap="butt" stroke-miterlimit="10" stroke-linejoin="miter" fill="none" stroke="#000000" d="M259.738 188.621 66.273 221.574"/>
<path stroke-width="4" stroke-linecap="butt" stroke-miterlimit="10" stroke-linejoin="miter" fill="none" stroke="#000000" d="M209.699 246.984 66.273 221.574"/>
<path stroke-width="4" stroke-linecap="butt" stroke-miterlimit="10" stroke-linejoin="miter" fill="none" stroke="#000000" d="M133.293 260 66.273 221.574"/>
<path stroke-width="4" stroke-linecap="butt" stroke-miterlimit="10" stroke-linejoin="miter" fill="none" stroke="#000000" d="M260 112.215 40 149.691"/>
<path stroke-width="4" stroke-linecap="butt" stroke-miterlimit="10" stroke-linejoin="miter" fill="none" stroke="#000000" d="M259.738 188.621 40 149.691"/>
<path stroke-width="4" stroke-linecap="butt" stroke-miterlimit="10" stroke-linejoin="miter" fill="none" stroke="#000000" d="M209.699 246.984 40 149.691"/>
<path stroke-width="4" stroke-linecap="butt" stroke-miterlimit="10" stroke-linejoin="miter" fill="none" stroke="#000000" d="M133.293 260 40 149.691"/>
<path stroke-width="4" stroke-linecap="butt" stroke-miterlimit="10" stroke-linejoin="miter" fill="none" stroke="#000000" d="M66.273 221.574 40 149.691"/>
<path stroke-width="4" stroke-linecap="butt" stroke-miterlimit="10" stroke-linejoin="miter" fill="none" stroke="#000000" d="M260 112.215 153.352 150.066"/>
<path stroke-width="4" stroke-linecap="butt" stroke-miterlimit="10" stroke-linejoin="miter" fill="none" stroke="#000000" d="M259.738 188.621 153.352 150.066"/>
<path stroke-width="4" stroke-linecap="butt" stroke-miterlimit="10" stroke-linejoin="miter" fill="none" stroke="#000000" d="M209.699 246.984 153.352 150.066"/>
<path stroke-width="4" stroke-linecap="butt" stroke-miterlimit="10" stroke-linejoin="miter" fill="none" stroke="#000000" d="M133.293 260 153.352 150.066"/>
<path stroke-width="4" stroke-linecap="butt" stroke-miterlimit="10" stroke-linejoin="miter" fill="none" stroke="#000000" d="M66.273 221.574 153.352 150.066"/>
<path stroke-width="4" stroke-linecap="butt" stroke-miterlimit="10" stroke-linejoin="miter" fill="none" stroke="#000000" d="M40 149.691 153.352 150.066"/>
<path stroke-width="4" stroke-linecap="butt" stroke-miterlimit="10" stroke-linejoin="miter" fill="none" stroke="#000000" d="M260 112.215 210.359 53.52"/>
<path stroke-width="4" stroke-linecap="butt" stroke-miterlimit="10" stroke-linejoin="miter" fill="none" stroke="#000000" d="M259.738 188.621 210.359 53.52"/>
<path stroke-width="4" stroke-linecap="butt" stroke-miterlimit="10" stroke-linejoin="miter" fill="none" stroke="#000000" d="M209.699 246.984 210.359 53.52"/>
<path stroke-width="4" stroke-linecap="butt" stroke-miterlimit="10" stroke-linejoin="miter" fill="none" stroke="#000000" d="M133.293 260 210.359 53.52"/>
<path stroke-width="4" stroke-linecap="butt" stroke-miterlimit="10" stroke-linejoin="miter" fill="none" stroke="#000000" d="M66.273 221.574 210.359 53.52"/>
<path stroke-width="4" stroke-linecap="butt" stroke-miterlimit="10" stroke-linejoin="miter" fill="none" stroke="#000000" d="M40 149.691 210.359 53.52"/>
<path stroke-width="4" stroke-linecap="butt" stroke-miterlimit="10" stroke-linejoin="miter" fill="none" stroke="#000000" d="M153.352 150.066 210.359 53.52"/>
<path stroke-width="4" stroke-linecap="butt" stroke-miterlimit="10" stroke-linejoin="miter" fill="none" stroke="#000000" d="M260 112.215 134.043 40"/>
<path stroke-width="4" stroke-linecap="butt" stroke-miterlimit="10" stroke-linejoin="miter" fill="none" stroke="#000000" d="M259.738 188.621 134.043 40"/>
<path stroke-width="4" stroke-linecap="butt" stroke-miterlimit="10" stroke-linejoin="miter" fill="none" stroke="#000000" d="M209.699 246.984 134.043 40"/>
<path stroke-width="4" stroke-linecap="butt" stroke-miterlimit="10" stroke-linejoin="miter" fill="none" stroke="#000000" d="M133.293 260 134.043 40"/>
<path stroke-width="4" stroke-linecap="butt" stroke-miterlimit="10" stroke-linejoin="miter" fill="none" stroke="#000000" d="M66.273 221.574 134.043 40"/>
<path stroke-width="4" stroke-linecap="butt" stroke-miterlimit="10" stroke-linejoin="miter" fill="none" stroke="#000000" d="M40 149.691 134.043 40"/>
<path stroke-width="4" stroke-linecap="butt" stroke-miterlimit="10" stroke-linejoin="miter" fill="none" stroke="#000000" d="M153.352 150.066 134.043 40"/>
<path stroke-width="4" stroke-linecap="butt" stroke-miterlimit="10" stroke-linejoin="miter" fill="none" stroke="#000000" d="M210.359 53.52 134.043 40"/>
<path stroke-width="4" stroke-linecap="butt" stroke-miterlimit="10" stroke-linejoin="miter" fill="none" stroke="#000000" d="M260 112.215 66.766 77.98"/>
<path stroke-width="4" stroke-linecap="butt" stroke-miterlimit="10" stroke-linejoin="miter" fill="none" stroke="#000000" d="M259.738 188.621 66.766 77.98"/>
<path stroke-width="4" stroke-linecap="butt" stroke-miterlimit="10" stroke-linejoin="miter" fill="none" stroke="#000000" d="M209.699 246.984 66.766 77.98"/>
<path stroke-width="4" stroke-linecap="butt" stroke-miterlimit="10" stroke-linejoin="miter" fill="none" stroke="#000000" d="M133.293 260 66.766 77.98"/>
<path stroke-width="4" stroke-linecap="butt" stroke-miterlimit="10" stroke-linejoin="miter" fill="none" stroke="#000000" d="M66.273 221.574 66.766 77.98"/>
<path stroke-width="4" stroke-linecap="butt" stroke-miterlimit="10" stroke-linejoin="miter" fill="none" stroke="#000000" d="M40 149.691 66.766 77.98"/>
<path stroke-width="4" stroke-linecap="butt" stroke-miterlimit="10" stroke-linejoin="miter" fill="none" stroke="#000000" d="M153.352 150.066 66.766 77.98"/>
<path stroke-width="4" stroke-linecap="butt" stroke-miterlimit="10" stroke-linejoin="miter" fill="none" stroke="#000000" d="M210.359 53.52 66.766 77.98"/>
<path stroke-width="4" stroke-linecap="butt" stroke-miterlimit="10" stroke-linejoin="miter" fill="none" stroke="#000000" d="M134.043 40 66.766 77.98"/>
<path d="M265 112.215C265 118.883 255 118.883 255 112.215 255 105.547 265 105.547 265 112.215" fill="#ff0000"/>
<path stroke-width="1" stroke-linecap="butt" stroke-miterlimit="10" stroke-linejoin="miter" fill="none" stroke="#000000" d="M265 112.215C265 118.883 255 118.883 255 112.215 255 105.547 265 105.547 265 112.215"/>
<path d="M264.738 188.621C264.738 195.285 254.738 195.285 254.738 188.621 254.738 181.953 264.738 181.953 264.738 188.621" fill="#ff0000"/>
<path stroke-width="1" stroke-linecap="butt" stroke-miterlimit="10" stroke-linejoin="miter" fill="none" stroke="#000000" d="M264.738 188.621C264.738 195.285 254.738 195.285 254.738 188.621 254.738 181.953 264.738 181.953 264.738 188.621"/>
<path d="M214.699 246.984C214.699 253.652 204.699 253.652 204.699 246.984 204.699 240.316 214.699 240.316 214.699 246.984" fill="#ff0000"/>
<path stroke-width="1" stroke-linecap="butt" stroke-miterlimit="10" stroke-linejoin="miter" fill="none" stroke="#000000" d="M214.699 246.984C214.699 253.652 204.699 253.652 204.699 246.984 204.699 240.316 214.699 240.316 214.699 246.984"/>
<path d="M138.293 260C138.293 266.668 128.293 266.668 128.293 260 128.293 253.332 138.293 253.332 138.293 260" fill="#ff0000"/>
<path stroke-width="1" stroke-linecap="butt" stroke-miterlimit="10" stroke-linejoin="miter" fill="none" stroke="#000000" d="M138.293 260C138.293 266.668 128.293 266.668 128.293 260 128.293 253.332 138.293 253.332 138.293 260"/>
<path d="M71.273 221.574C71.273 228.242 61.273 228.242 61.273 221.574 61.273 214.91 71.273 214.91 71.273 221.574" fill="#ff0000"/>
<path stroke-width="1" stroke-linecap="butt" stroke-miterlimit="10" stroke-linejoin="miter" fill="none" stroke="#000000" d="M71.273 221.574C71.273 228.242 61.273 228.242 61.273 221.574 61.273 214.91 71.273 214.91 71.273 221.574"/>
<path d="M45 149.691C45 156.355 35 156.355 35 149.691 35 143.023 45 143.023 45 149.691" fill="#ff0000"/>
<path stroke-width="1" stroke-linecap="butt" stroke-miterlimit="10" stroke-linejoin="miter" fill="none" stroke="#000000" d="M45 149.691C45 156.355 35 156.355 35 149.691 35 143.023 45 143.023 45 149.691"/>
<path d="M158.352 150.066C158.352 156.73 148.352 156.73 148.352 150.066 148.352 143.398 158.352 143.398 158.352 150.066" fill="#ff0000"/>
<path stroke-width="1" stroke-linecap="butt" stroke-miterlimit="10" stroke-linejoin="miter" fill="none" stroke="#000000" d="M158.352 150.066C158.352 156.73 148.352 156.73 148.352 150.066 148.352 143.398 158.352 143.398 158.352 150.066"/>
<path d="M215.359 53.52C215.359 60.188 205.359 60.188 205.359 53.52 205.359 46.852 215.359 46.852 215.359 53.52" fill="#ff0000"/>
<path stroke-width="1" stroke-linecap="butt" stroke-miterlimit="10" stroke-linejoin="miter" fill="none" stroke="#000000" d="M215.359 53.52C215.359 60.188 205.359 60.188 205.359 53.52 205.359 46.852 215.359 46.852 215.359 53.52"/>
<path d="M139.043 40C139.043 46.668 129.043 46.668 129.043 40 129.043 33.332 139.043 33.332 139.043 40" fill="#ff0000"/>
<path stroke-width="1" stroke-linecap="butt" stroke-miterlimit="10" stroke-linejoin="miter" fill="none" stroke="#000000" d="M139.043 40C139.043 46.668 129.043 46.668 129.043 40 129.043 33.332 139.043 33.332 139.043 40"/>
<path d="M71.766 77.98C71.766 84.648 61.766 84.648 61.766 77.98 61.766 71.312 71.766 71.312 71.766 77.98" fill="#ff0000"/>
<path stroke-width="1" stroke-linecap="butt" stroke-miterlimit="10" stroke-linejoin="miter" fill="none" stroke="#000000" d="M71.766 77.98C71.766 84.648 61.766 84.648 61.766 77.98 61.766 71.312 71.766 71.312 71.766 77.98"/>
</g>
</svg>
