<svg xmlns="http://www.w3.org/2000/svg" xmlns:xlink="http://www.w3.org/1999/xlink" version="1.1" width="264.45399" height="257.22297" viewBox="0 0 264.45399 257.22297">
<defs>
<clipPath id="clip_0">
<path transform="matrix(1,0,0,-1,-44.42,790.269)" d="M44.42 533.046H308.874V790.269H44.42Z" fill-rule="evenodd"/>
</clipPath>
<clipPath id="clip_1">
<path transform="matrix(.24,0,0,.24,-44.42,-51.651)" d="M115.625 115.625H1365.625V1365.625H115.625Z" fill-rule="evenodd"/>
</clipPath>
</defs>
<g clip-path="url(#clip_0)">
<g clip-path="url(#clip_1)">
<path transform="matrix(1,0,0,1,-16.669999,-23.901001)" d="M0 0H300V300H0Z" fill="#ffffff"/>
<path transform="matrix(1,0,0,1,224.9198,120.770908)" stroke-width="4" stroke-linecap="butt" stroke-miterlimit="10" stroke-linejoin="miter" fill="none" stroke="#000000" d="M0 0-93.133-23.957"/>
<path transform="matrix(1,0,0,1,224.9198,120.770908)" stroke-width="4" stroke-linecap="butt" stroke-miterlimit="10" stroke-linejoin="miter" fill="none" stroke="#000000" d="M0 0-101.613 115.328"/>
<path transform="matrix(1,0,0,1,131.787,96.8138)" stroke-width="4" stroke-linecap="butt" stroke-miterlimit="10" stroke-linejoin="miter" fill="none" stroke="#000000" d="M0 0-8.48 139.285"/>
<path transform="matrix(1,0,0,1,224.9198,120.770908)" stroke-width="4" stroke-linecap="butt" stroke-miterlimit="10" stroke-linejoin="miter" fill="none" stroke="#000000" d="M0 0-32.094 30.453"/>
<path transform="matrix(1,0,0,1,131.787,96.8138)" stroke-width="4" stroke-linecap="butt" stroke-miterlimit="10" stroke-linejoin="miter" fill="none" stroke="#000000" d="M0 0 61.039 54.41"/>
<path transform="matrix(1,0,0,1,123.306598,236.099)" stroke-width="4" stroke-linecap="butt" stroke-miterlimit="10" stroke-linejoin="miter" fill="none" stroke="#000000" d="M0 0 69.52-84.875"/>
<path transform="matrix(1,0,0,1,224.9198,120.770908)" stroke-width="4" stroke-linecap="butt" stroke-miterlimit="10" stroke-linejoin="miter" fill="none" stroke="#000000" d="M0 0-96.324 28.41"/>
<path transform="matrix(1,0,0,1,131.787,96.8138)" stroke-width="4" stroke-linecap="butt" stroke-miterlimit="10" stroke-linejoin="miter" fill="none" stroke="#000000" d="M0 0-3.191 52.367"/>
<path transform="matrix(1,0,0,1,123.306598,236.099)" stroke-width="4" stroke-linecap="butt" stroke-miterlimit="10" stroke-linejoin="miter" fill="none" stroke="#000000" d="M0 0 5.289-86.918"/>
<path transform="matrix(1,0,0,1,192.8261,151.224)" stroke-width="4" stroke-linecap="butt" stroke-miterlimit="10" stroke-linejoin="miter" fill="none" stroke="#000000" d="M0 0-64.23-2.043"/>
<path transform="matrix(1,0,0,1,224.9198,120.770908)" stroke-width="4" stroke-linecap="butt" stroke-miterlimit="10" stroke-linejoin="miter" fill="none" stroke="#000000" d="M0 0-160.582 26.863"/>
<path transform="matrix(1,0,0,1,131.787,96.8138)" stroke-width="4" stroke-linecap="butt" stroke-miterlimit="10" stroke-linejoin="miter" fill="none" stroke="#000000" d="M0 0-67.449 50.82"/>
<path transform="matrix(1,0,0,1,123.306598,236.099)" stroke-width="4" stroke-linecap="butt" stroke-miterlimit="10" stroke-linejoin="miter" fill="none" stroke="#000000" d="M0 0-58.969-88.465"/>
<path transform="matrix(1,0,0,1,192.8261,151.224)" stroke-width="4" stroke-linecap="butt" stroke-miterlimit="10" stroke-linejoin="miter" fill="none" stroke="#000000" d="M0 0-128.488-3.59"/>
<path transform="matrix(1,0,0,1,128.5956,149.181)" stroke-width="4" stroke-linecap="butt" stroke-miterlimit="10" stroke-linejoin="miter" fill="none" stroke="#000000" d="M0 0-64.258-1.547"/>
<path transform="matrix(1,0,0,1,224.9198,120.770908)" stroke-width="4" stroke-linecap="butt" stroke-miterlimit="10" stroke-linejoin="miter" fill="none" stroke="#000000" d="M0 0-188.863-5.281"/>
<path transform="matrix(1,0,0,1,131.787,96.8138)" stroke-width="4" stroke-linecap="butt" stroke-miterlimit="10" stroke-linejoin="miter" fill="none" stroke="#000000" d="M0 0-95.73 18.676"/>
<path transform="matrix(1,0,0,1,123.306598,236.099)" stroke-width="4" stroke-linecap="butt" stroke-miterlimit="10" stroke-linejoin="miter" fill="none" stroke="#000000" d="M0 0-87.25-120.609"/>
<path transform="matrix(1,0,0,1,192.8261,151.224)" stroke-width="4" stroke-linecap="butt" stroke-miterlimit="10" stroke-linejoin="miter" fill="none" stroke="#000000" d="M0 0-156.77-35.734"/>
<path transform="matrix(1,0,0,1,128.5956,149.181)" stroke-width="4" stroke-linecap="butt" stroke-miterlimit="10" stroke-linejoin="miter" fill="none" stroke="#000000" d="M0 0-92.539-33.691"/>
<path transform="matrix(1,0,0,1,64.3378,147.6342)" stroke-width="4" stroke-linecap="butt" stroke-miterlimit="10" stroke-linejoin="miter" fill="none" stroke="#000000" d="M0 0-28.281-32.145"/>
<path transform="matrix(1,0,0,1,224.9198,120.770908)" stroke-width="1" stroke-linecap="butt" stroke-miterlimit="10" stroke-linejoin="miter" fill="none" stroke="#cc0000" d="M0 0-201.59-52.41"/>
<path transform="matrix(1,0,0,1,131.787,96.8138)" stroke-width="1" stroke-linecap="butt" stroke-miterlimit="10" stroke-linejoin="miter" fill="none" stroke="#cc0000" d="M0 0-108.457-28.453"/>
<path transform="matrix(1,0,0,1,192.8261,151.224)" stroke-width="1" stroke-linecap="butt" stroke-miterlimit="10" stroke-linejoin="miter" fill="none" stroke="#cc0000" d="M0 0-169.496-82.863"/>
<path transform="matrix(1,0,0,1,128.5956,149.181)" stroke-width="1" stroke-linecap="butt" stroke-miterlimit="10" stroke-linejoin="miter" fill="none" stroke="#cc0000" d="M0 0-105.266-80.82"/>
<path transform="matrix(1,0,0,1,64.3378,147.6342)" stroke-width="1" stroke-linecap="butt" stroke-miterlimit="10" stroke-linejoin="miter" fill="none" stroke="#cc0000" d="M0 0-41.008-79.273"/>
<path transform="matrix(1,0,0,1,36.056604,115.48959)" stroke-width="1" stroke-linecap="butt" stroke-miterlimit="10" stroke-linejoin="miter" fill="none" stroke="#cc0000" d="M0 0-12.727-47.129"/>
<path transform="matrix(1,0,0,1,224.9198,120.770908)" stroke-width="1" stroke-linecap="butt" stroke-miterlimit="10" stroke-linejoin="miter" fill="none" stroke="#cc0000" d="M0 0-167.57-85.492"/>
<path transform="matrix(1,0,0,1,131.787,96.8138)" stroke-width="1" stroke-linecap="butt" stroke-miterlimit="10" stroke-linejoin="miter" fill="none" stroke="#cc0000" d="M0 0-74.438-61.535"/>
<path transform="matrix(1,0,0,1,192.8261,151.224)" stroke-width="1" stroke-linecap="butt" stroke-miterlimit="10" stroke-linejoin="miter" fill="none" stroke="#cc0000" d="M0 0-135.477-115.945"/>
<path transform="matrix(1,0,0,1,128.5956,149.181)" stroke-width="1" stroke-linecap="butt" stroke-miterlimit="10" stroke-linejoin="miter" fill="none" stroke="#cc0000" d="M0 0-71.246-113.902"/>
<path transform="matrix(1,0,0,1,64.3378,147.6342)" stroke-width="1" stroke-linecap="butt" stroke-miterlimit="10" stroke-linejoin="miter" fill="none" stroke="#cc0000" d="M0 0-6.988-112.355"/>
<path transform="matrix(1,0,0,1,36.056604,115.48959)" stroke-width="1" stroke-linecap="butt" stroke-miterlimit="10" stroke-linejoin="miter" fill="none" stroke="#cc0000" d="M0 0 21.293-80.211"/>
<path transform="matrix(1,0,0,1,23.330002,68.3607)" stroke-width="4" stroke-linecap="butt" stroke-miterlimit="10" stroke-linejoin="miter" fill="none" stroke="#000000" d="M0 0 34.02-33.082"/>
<path transform="matrix(1,0,0,1,224.9198,120.770908)" stroke-width="1" stroke-linecap="butt" stroke-miterlimit="10" stroke-linejoin="miter" fill="none" stroke="#cc0000" d="M0 0-117.266-104.672"/>
<path transform="matrix(1,0,0,1,131.787,96.8138)" stroke-width="1" stroke-linecap="butt" stroke-miterlimit="10" stroke-linejoin="miter" fill="none" stroke="#cc0000" d="M0 0-24.133-80.715"/>
<path transform="matrix(1,0,0,1,192.8261,151.224)" stroke-width="1" stroke-linecap="butt" stroke-miterlimit="10" stroke-linejoin="miter" fill="none" stroke="#cc0000" d="M0 0-85.172-135.125"/>
<path transform="matrix(1,0,0,1,128.5956,149.181)" stroke-width="1" stroke-linecap="butt" stroke-miterlimit="10" stroke-linejoin="miter" fill="none" stroke="#cc0000" d="M0 0-20.941-133.082"/>
<path transform="matrix(1,0,0,1,64.3378,147.6342)" stroke-width="1" stroke-linecap="butt" stroke-miterlimit="10" stroke-linejoin="miter" fill="none" stroke="#cc0000" d="M0 0 43.316-131.535"/>
<path transform="matrix(1,0,0,1,36.056604,115.48959)" stroke-width="1" stroke-linecap="butt" stroke-miterlimit="10" stroke-linejoin="miter" fill="none" stroke="#cc0000" d="M0 0 71.598-99.391"/>
<path transform="matrix(1,0,0,1,23.330002,68.3607)" stroke-width="4" stroke-linecap="butt" stroke-miterlimit="10" stroke-linejoin="miter" fill="none" stroke="#000000" d="M0 0 84.324-52.262"/>
<path transform="matrix(1,0,0,1,57.349504,35.278699)" stroke-width="4" stroke-linecap="butt" stroke-miterlimit="10" stroke-linejoin="miter" fill="none" stroke="#000000" d="M0 0 50.305-19.18"/>
<path transform="matrix(1,0,0,1,224.9198,120.770908)" stroke-width="1" stroke-linecap="butt" stroke-miterlimit="10" stroke-linejoin="miter" fill="none" stroke="#cc0000" d="M0 0-59.273-103.051"/>
<path transform="matrix(1,0,0,1,131.787,96.8138)" stroke-width="1" stroke-linecap="butt" stroke-miterlimit="10" stroke-linejoin="miter" fill="none" stroke="#cc0000" d="M0 0 33.859-79.094"/>
<path transform="matrix(1,0,0,1,192.8261,151.224)" stroke-width="1" stroke-linecap="butt" stroke-miterlimit="10" stroke-linejoin="miter" fill="none" stroke="#cc0000" d="M0 0-27.18-133.504"/>
<path transform="matrix(1,0,0,1,128.5956,149.181)" stroke-width="1" stroke-linecap="butt" stroke-miterlimit="10" stroke-linejoin="miter" fill="none" stroke="#cc0000" d="M0 0 37.051-131.461"/>
<path transform="matrix(1,0,0,1,64.3378,147.6342)" stroke-width="1" stroke-linecap="butt" stroke-miterlimit="10" stroke-linejoin="miter" fill="none" stroke="#cc0000" d="M0 0 101.309-129.914"/>
<path transform="matrix(1,0,0,1,36.056604,115.48959)" stroke-width="1" stroke-linecap="butt" stroke-miterlimit="10" stroke-linejoin="miter" fill="none" stroke="#cc0000" d="M0 0 129.59-97.77"/>
<path transform="matrix(1,0,0,1,23.330002,68.3607)" stroke-width="4" stroke-linecap="butt" stroke-miterlimit="10" stroke-linejoin="miter" fill="none" stroke="#000000" d="M0 0 142.316-50.641"/>
<path transform="matrix(1,0,0,1,57.349504,35.278699)" stroke-width="4" stroke-linecap="butt" stroke-miterlimit="10" stroke-linejoin="miter" fill="none" stroke="#000000" d="M0 0 108.297-17.559"/>
<path transform="matrix(1,0,0,1,107.654209,16.098999)" stroke-width="4" stroke-linecap="butt" stroke-miterlimit="10" stroke-linejoin="miter" fill="none" stroke="#000000" d="M0 0 57.992 1.621"/>
<path transform="matrix(1,0,0,1,224.9198,120.770908)" stroke-width="1" stroke-linecap="butt" stroke-miterlimit="10" stroke-linejoin="miter" fill="none" stroke="#cc0000" d="M0 0-11.473-81.125"/>
<path transform="matrix(1,0,0,1,131.787,96.8138)" stroke-width="1" stroke-linecap="butt" stroke-miterlimit="10" stroke-linejoin="miter" fill="none" stroke="#cc0000" d="M0 0 81.66-57.168"/>
<path transform="matrix(1,0,0,1,192.8261,151.224)" stroke-width="1" stroke-linecap="butt" stroke-miterlimit="10" stroke-linejoin="miter" fill="none" stroke="#cc0000" d="M0 0 20.621-111.578"/>
<path transform="matrix(1,0,0,1,128.5956,149.181)" stroke-width="1" stroke-linecap="butt" stroke-miterlimit="10" stroke-linejoin="miter" fill="none" stroke="#cc0000" d="M0 0 84.852-109.535"/>
<path transform="matrix(1,0,0,1,64.3378,147.6342)" stroke-width="1" stroke-linecap="butt" stroke-miterlimit="10" stroke-linejoin="miter" fill="none" stroke="#cc0000" d="M0 0 149.109-107.988"/>
<path transform="matrix(1,0,0,1,36.056604,115.48959)" stroke-width="1" stroke-linecap="butt" stroke-miterlimit="10" stroke-linejoin="miter" fill="none" stroke="#cc0000" d="M0 0 177.391-75.844"/>
<path transform="matrix(1,0,0,1,23.330002,68.3607)" stroke-width="4" stroke-linecap="butt" stroke-miterlimit="10" stroke-linejoin="miter" fill="none" stroke="#000000" d="M0 0 190.117-28.715"/>
<path transform="matrix(1,0,0,1,57.349504,35.278699)" stroke-width="4" stroke-linecap="butt" stroke-miterlimit="10" stroke-linejoin="miter" fill="none" stroke="#000000" d="M0 0 156.098 4.367"/>
<path transform="matrix(1,0,0,1,107.654209,16.098999)" stroke-width="4" stroke-linecap="butt" stroke-miterlimit="10" stroke-linejoin="miter" fill="none" stroke="#000000" d="M0 0 105.793 23.547"/>
<path transform="matrix(1,0,0,1,165.64641,17.7201)" stroke-width="4" stroke-linecap="butt" stroke-miterlimit="10" stroke-linejoin="miter" fill="none" stroke="#000000" d="M0 0 47.801 21.926"/>
<path transform="matrix(1,0,0,1,224.9198,120.770908)" stroke-width="1" stroke-linecap="butt" stroke-miterlimit="10" stroke-linejoin="miter" fill="none" stroke="#cc0000" d="M0 0 18.41-46.258"/>
<path transform="matrix(1,0,0,1,131.787,96.8138)" stroke-width="1" stroke-linecap="butt" stroke-miterlimit="10" stroke-linejoin="miter" fill="none" stroke="#cc0000" d="M0 0 111.543-22.301"/>
<path transform="matrix(1,0,0,1,192.8261,151.224)" stroke-width="1" stroke-linecap="butt" stroke-miterlimit="10" stroke-linejoin="miter" fill="none" stroke="#cc0000" d="M0 0 50.504-76.711"/>
<path transform="matrix(1,0,0,1,128.5956,149.181)" stroke-width="1" stroke-linecap="butt" stroke-miterlimit="10" stroke-linejoin="miter" fill="none" stroke="#cc0000" d="M0 0 114.734-74.668"/>
<path transform="matrix(1,0,0,1,64.3378,147.6342)" stroke-width="1" stroke-linecap="butt" stroke-miterlimit="10" stroke-linejoin="miter" fill="none" stroke="#cc0000" d="M0 0 178.992-73.121"/>
<path transform="matrix(1,0,0,1,36.056604,115.48959)" stroke-width="1" stroke-linecap="butt" stroke-miterlimit="10" stroke-linejoin="miter" fill="none" stroke="#cc0000" d="M0 0 207.273-40.977"/>
<path transform="matrix(1,0,0,1,23.330002,68.3607)" stroke-width="4" stroke-linecap="butt" stroke-miterlimit="10" stroke-linejoin="miter" fill="none" stroke="#000000" d="M0 0 220 6.152"/>
<path transform="matrix(1,0,0,1,57.349504,35.278699)" stroke-width="4" stroke-linecap="butt" stroke-miterlimit="10" stroke-linejoin="miter" fill="none" stroke="#000000" d="M0 0 185.98 39.234"/>
<path transform="matrix(1,0,0,1,107.654209,16.098999)" stroke-width="4" stroke-linecap="butt" stroke-miterlimit="10" stroke-linejoin="miter" fill="none" stroke="#000000" d="M0 0 135.676 58.414"/>
<path transform="matrix(1,0,0,1,165.64641,17.7201)" stroke-width="4" stroke-linecap="butt" stroke-miterlimit="10" stroke-linejoin="miter" fill="none" stroke="#000000" d="M0 0 77.684 56.793"/>
<path transform="matrix(1,0,0,1,213.4472,39.6459)" stroke-width="4" stroke-linecap="butt" stroke-miterlimit="10" stroke-linejoin="miter" fill="none" stroke="#000000" d="M0 0 29.883 34.867"/>
<path transform="matrix(1,0,0,1,229.9198,120.770908)" d="M0 0C0 6.668-10 6.668-10 0-10-6.668 0-6.668 0 0" fill="#ff0000"/>
<path transform="matrix(1,0,0,1,229.9198,120.770908)" stroke-width="1" stroke-linecap="butt" stroke-miterlimit="10" stroke-linejoin="miter" fill="none" stroke="#000000" d="M0 0C0 6.668-10 6.668-10 0-10-6.668 0-6.668 0 0"/>
<path transform="matrix(1,0,0,1,136.787,96.8138)" d="M0 0C0 6.668-10 6.668-10 0-10-6.668 0-6.668 0 0" fill="#ff0000"/>
<path transform="matrix(1,0,0,1,136.787,96.8138)" stroke-width="1" stroke-linecap="butt" stroke-miterlimit="10" stroke-linejoin="miter" fill="none" stroke="#000000" d="M0 0C0 6.668-10 6.668-10 0-10-6.668 0-6.668 0 0"/>
<path transform="matrix(1,0,0,1,128.3066,236.099)" d="M0 0C0 6.668-10 6.668-10 0-10-6.668 0-6.668 0 0" fill="#ff0000"/>
<path transform="matrix(1,0,0,1,128.3066,236.099)" stroke-width="1" stroke-linecap="butt" stroke-miterlimit="10" stroke-linejoin="miter" fill="none" stroke="#000000" d="M0 0C0 6.668-10 6.668-10 0-10-6.668 0-6.668 0 0"/>
<path transform="matrix(1,0,0,1,197.8261,151.224)" d="M0 0C0 6.668-10 6.668-10 0-10-6.664 0-6.664 0 0" fill="#ff0000"/>
<path transform="matrix(1,0,0,1,197.8261,151.224)" stroke-width="1" stroke-linecap="butt" stroke-miterlimit="10" stroke-linejoin="miter" fill="none" stroke="#000000" d="M0 0C0 6.668-10 6.668-10 0-10-6.664 0-6.664 0 0"/>
<path transform="matrix(1,0,0,1,133.5956,149.181)" d="M0 0C0 6.668-10 6.668-10 0-10-6.664 0-6.664 0 0" fill="#ff0000"/>
<path transform="matrix(1,0,0,1,133.5956,149.181)" stroke-width="1" stroke-linecap="butt" stroke-miterlimit="10" stroke-linejoin="miter" fill="none" stroke="#000000" d="M0 0C0 6.668-10 6.668-10 0-10-6.664 0-6.664 0 0"/>
<path transform="matrix(1,0,0,1,69.3378,147.6342)" d="M0 0C0 6.664-10 6.664-10 0-10-6.668 0-6.668 0 0" fill="#ff0000"/>
<path transform="matrix(1,0,0,1,69.3378,147.6342)" stroke-width="1" stroke-linecap="butt" stroke-miterlimit="10" stroke-linejoin="miter" fill="none" stroke="#000000" d="M0 0C0 6.664-10 6.664-10 0-10-6.668 0-6.668 0 0"/>
<path transform="matrix(1,0,0,1,41.056604,115.48959)" d="M0 0C0 6.668-10 6.668-10 0-10-6.664 0-6.664 0 0" fill="#ff0000"/>
<path transform="matrix(1,0,0,1,41.056604,115.48959)" stroke-width="1" stroke-linecap="butt" stroke-miterlimit="10" stroke-linejoin="miter" fill="none" stroke="#000000" d="M0 0C0 6.668-10 6.668-10 0-10-6.664 0-6.664 0 0"/>
<path transform="matrix(1,0,0,1,28.330002,68.3607)" d="M0 0C0 6.668-10 6.668-10 0-10-6.664 0-6.664 0 0" fill="#00ff00"/>
<path transform="matrix(1,0,0,1,28.330002,68.3607)" stroke-width="1" stroke-linecap="butt" stroke-miterlimit="10" stroke-linejoin="miter" fill="none" stroke="#000000" d="M0 0C0 6.668-10 6.668-10 0-10-6.664 0-6.664 0 0"/>
<path transform="matrix(1,0,0,1,62.349504,35.278699)" d="M0 0C0 6.668-10 6.668-10 0-10-6.664 0-6.664 0 0" fill="#00ff00"/>
<path transform="matrix(1,0,0,1,62.349504,35.278699)" stroke-width="1" stroke-linecap="butt" stroke-miterlimit="10" stroke-linejoin="miter" fill="none" stroke="#000000" d="M0 0C0 6.668-10 6.668-10 0-10-6.664 0-6.664 0 0"/>
<path transform="matrix(1,0,0,1,112.654209,16.098999)" d="M0 0C0 6.668-10 6.668-10 0-10-6.668 0-6.668 0 0" fill="#00ff00"/>
<path transform="matrix(1,0,0,1,112.654209,16.098999)" stroke-width="1" stroke-linecap="butt" stroke-miterlimit="10" stroke-linejoin="miter" fill="none" stroke="#000000" d="M0 0C0 6.668-10 6.668-10 0-10-6.668 0-6.668 0 0"/>
<path transform="matrix(1,0,0,1,170.64641,17.7201)" d="M0 0C0 6.668-10 6.668-10 0-10-6.668 0-6.668 0 0" fill="#00ff00"/>
<path transform="matrix(1,0,0,1,170.64641,17.7201)" stroke-width="1" stroke-linecap="butt" stroke-miterlimit="10" stroke-linejoin="miter" fill="none" stroke="#000000" d="M0 0C0 6.668-10 6.668-10 0-10-6.668 0-6.668 0 0"/>
<path transform="matrix(1,0,0,1,218.4472,39.6459)" d="M0 0C0 6.664-10 6.664-10 0-10-6.668 0-6.668 0 0" fill="#00ff00"/>
<path transform="matrix(1,0,0,1,218.4472,39.6459)" stroke-width="1" stroke-linecap="butt" stroke-miterlimit="10" stroke-linejoin="miter" fill="none" stroke="#000000" d="M0 0C0 6.664-10 6.664-10 0-10-6.668 0-6.668 0 0"/>
<path transform="matrix(1,0,0,1,248.33,74.5131)" d="M0 0C0 6.668-10 6.668-10 0-10-6.668 0-6.668 0 0" fill="#00ff00"/>
<path transform="matrix(1,0,0,1,248.33,74.5131)" stroke-width="1" stroke-linecap="butt" stroke-miterlimit="10" stroke-linejoin="miter" fill="none" stroke="#000000" d="M0 0C0 6.668-10 6.668-10 0-10-6.668 0-6.668 0 0"/>
</g>
</g>
</svg>
